<?xml version="1.0" encoding="UTF-8" standalone="no"?>
<svg width="84px" height="26px" viewBox="0 0 84 26" version="1.1" xmlns="http://www.w3.org/2000/svg" xmlns:xlink="http://www.w3.org/1999/xlink">
    <!-- Generator: Sketch 39.1 (31720) - http://www.bohemiancoding.com/sketch -->
    <title>BBC</title>
    <desc>Created with Sketch.</desc>
    <defs></defs>
    <g id="Symbols" stroke="none" stroke-width="1" fill="none" fill-rule="evenodd" opacity="0.400000006">
        <g id="Partners" transform="translate(-191.000000, -123.000000)" fill="#5A7C8E">
            <g id="logos" transform="translate(191.000000, 123.000000)">
                <path d="M57.96,0.084 L57.96,25.116 L84,25.116 L84,0.084 L57.96,0.084 Z M78.288,19.404 C76.4399908,20.412005 74.3400118,20.916 71.988,20.916 C70.0839905,20.916 68.4600067,20.5240039 67.116,19.74 C65.7719933,18.9559961 64.6800042,17.9200064 63.84,16.632 C63.0559961,15.0639922 62.664,13.580007 62.664,12.18 C62.664,9.60398712 63.5739909,7.46200854 65.394,5.754 C67.2140091,4.04599146 69.4119871,3.192 71.988,3.192 C73.8920095,3.192 75.9359891,3.66799524 78.12,4.62 L78.036,7.308 C76.0199899,6.13199412 74.0600095,5.544 72.156,5.544 C70.1399899,5.544 68.4740066,6.1739937 67.158,7.434 C65.8419934,8.6940063 65.184,10.2479908 65.184,12.096 C65.184,13.9440092 65.8559933,15.4979937 67.2,16.758 C68.5440067,18.0180063 70.1959902,18.648 72.156,18.648 C74.2280104,18.648 76.2719899,18.0040064 78.288,16.716 L78.288,19.404 Z M29.064,25.116 L55.02,25.116 L55.02,0.084 L29.064,0.084 L29.064,25.116 Z M37.044,3.864 L41.496,3.864 C43.0080076,3.864 44.1559961,4.05999804 44.94,4.452 C45.7240039,4.84400196 46.311998,5.36199678 46.704,6.006 C47.096002,6.65000322 47.292,7.41999552 47.292,8.316 C47.292,9.9960084 46.4240087,11.1999964 44.688,11.928 C45.9760064,12.1520011 46.9699965,12.6559961 47.67,13.44 C48.3700035,14.2240039 48.7479997,15.2039941 48.804,16.38 C48.7479997,17.2760045 48.4960022,18.0599966 48.048,18.732 C47.5999978,19.4040034 46.9420043,19.9639978 46.074,20.412 C45.2059957,20.8600022 44.1280064,21.084 42.84,21.084 L36.96,21.084 L36.96,3.864 L37.044,3.864 Z M43.932,10.5 C44.4920028,9.9399972 44.772,9.26800392 44.772,8.484 C44.772,6.8039916 43.7080106,5.964 41.58,5.964 L39.48,5.964 L39.48,11.172 L41.076,11.172 C42.4200067,11.172 43.3719972,10.9480022 43.932,10.5 L43.932,10.5 Z M45.864,17.556 C46.1440014,17.1079978 46.284,16.6600022 46.284,16.212 C46.2279997,15.5959969 46.0600014,15.0780021 45.78,14.658 C45.4999986,14.2379979 45.0660029,13.9160011 44.478,13.692 C43.8899971,13.4679989 42.9800062,13.3839997 41.748,13.44 L39.48,13.44 L39.48,18.9 L41.916,18.9 C43.1480062,18.9 44.0439972,18.8160008 44.604,18.648 C45.1640028,18.3119983 45.5839986,17.948002 45.864,17.556 L45.864,17.556 Z M0,25.116 L26.04,25.116 L26.04,0.084 L0,0.084 L0,25.116 Z M7.896,3.864 L12.432,3.864 C13.8880073,3.864 15.0219959,4.04599818 15.834,4.41 C16.6460041,4.77400182 17.247998,5.29199664 17.64,5.964 C18.032002,6.63600336 18.2559997,7.41999552 18.312,8.316 C18.2559997,9.9960084 17.3600087,11.2279961 15.624,12.012 C16.9120064,12.2360011 17.9199964,12.7399961 18.648,13.524 C19.3760036,14.3080039 19.74,15.2599944 19.74,16.38 C19.74,17.3320048 19.5160022,18.1439966 19.068,18.816 C18.6199978,19.4880034 17.9620043,20.0339979 17.094,20.454 C16.2259957,20.8740021 15.1200067,21.084 13.776,21.084 L7.896,21.084 L7.896,3.864 Z M14.868,10.5 C15.4280028,9.99599748 15.708,9.3240042 15.708,8.484 C15.708,6.8039916 14.6440106,5.964 12.516,5.964 L10.416,5.964 L10.416,11.172 L12.096,11.172 C13.3840064,11.172 14.3079972,10.9480022 14.868,10.5 L14.868,10.5 Z M16.8,17.64 C17.0240011,17.1919978 17.136,16.6880028 17.136,16.128 C17.136,15.5679972 16.9960014,15.1200017 16.716,14.784 C16.3799983,14.2799975 15.9600025,13.930001 15.456,13.734 C14.9519975,13.537999 14.0280067,13.44 12.684,13.44 L10.416,13.44 L10.416,18.9 L12.852,18.9 C14.1400064,18.9 15.0499973,18.7880011 15.582,18.564 C16.1140027,18.3399989 16.5199986,18.032002 16.8,17.64 L16.8,17.64 Z" id="BBC"></path>
            </g>
        </g>
    </g>
</svg>