<?xml version="1.0" encoding="UTF-8" standalone="no"?>
<svg width="85px" height="16px" viewBox="0 0 85 16" version="1.1" xmlns="http://www.w3.org/2000/svg" xmlns:xlink="http://www.w3.org/1999/xlink">
    <!-- Generator: Sketch 39.1 (31720) - http://www.bohemiancoding.com/sketch -->
    <title>BuzzFeed</title>
    <desc>Created with Sketch.</desc>
    <defs></defs>
    <g id="Symbols" stroke="none" stroke-width="1" fill="none" fill-rule="evenodd" opacity="0.400000006">
        <g id="Partners" transform="translate(-1165.000000, -128.000000)" fill="#5A7C8E">
            <g id="logos" transform="translate(191.000000, 123.000000)">
                <path d="M974.5,5.208 L981.556,5.208 C982.508005,5.208 983.305997,5.4879972 983.95,6.048 C984.594003,6.6080028 984.999999,7.33599552 985.168,8.232 C985.336001,9.12800448 985.210002,9.95399622 984.79,10.71 C984.369998,11.4660038 983.768004,11.9559989 982.984,12.18 L982.816,12.264 C984.328008,12.656002 985.195999,13.5799927 985.42,15.036 C985.644001,16.2680062 985.448003,17.3179957 984.832,18.186 C984.215997,19.0540043 983.292006,19.5439994 982.06,19.656 C981.723998,19.7120003 981.164004,19.74 980.38,19.74 L974.5,19.74 L974.5,5.208 Z M977.692,16.968 C977.748,17.0240003 977.776,17.052 977.776,17.052 L980.716,17.052 C981.220003,16.9959997 981.611999,16.8280014 981.892,16.548 C982.172001,16.2679986 982.326,15.8900024 982.354,15.414 C982.382,14.9379976 982.256001,14.5600014 981.976,14.28 C981.695999,13.9999986 981.304003,13.8040006 980.8,13.692 L977.692,13.692 L977.692,16.968 Z M977.608,10.92 L980.296,10.92 L980.8,10.92 C981.472003,10.8079994 981.877999,10.4720028 982.018,9.912 C982.158001,9.3519972 982.074002,8.87600196 981.766,8.484 C981.457998,8.09199804 981.052003,7.896 980.548,7.896 L977.608,7.896 L977.608,10.92 Z M1030.864,19.992 C1030.248,19.8799994 1029.884,19.824 1029.772,19.824 C1028.37199,19.4879983 1027.308,18.7740055 1026.58,17.682 C1025.852,16.5899945 1025.572,15.344007 1025.74,13.944 C1025.964,11.5919882 1027.13999,10.0240039 1029.268,9.24 C1030.89201,8.6799972 1032.41799,8.79199608 1033.846,9.576 C1035.27401,10.3600039 1036.128,11.7319902 1036.408,13.692 L1036.492,15.372 L1028.596,15.372 C1028.764,16.380005 1029.296,17.0519983 1030.192,17.388 C1031.48001,17.9480028 1032.82399,17.7800045 1034.224,16.884 L1034.392,16.8 C1034.392,16.7439997 1034.42,16.716 1034.476,16.716 L1035.736,18.564 L1034.56,19.32 C1033.832,19.6560017 1033.02,19.8799994 1032.124,19.992 L1031.872,19.992 L1030.864,19.992 Z M1033.72,13.44 C1033.776,12.7679966 1033.524,12.2220021 1032.964,11.802 C1032.404,11.3819979 1031.732,11.172 1030.948,11.172 C1030.332,11.2280003 1029.772,11.4799978 1029.268,11.928 C1028.764,12.3760022 1028.54,12.8799972 1028.596,13.44 L1033.72,13.44 Z M1042.204,19.992 C1042.204,19.992 1041.98,19.9640003 1041.532,19.908 L1040.86,19.74 C1039.79599,19.4599986 1038.914,18.9000042 1038.214,18.06 C1037.514,17.2199958 1037.136,16.2400056 1037.08,15.12 C1036.856,12.9359891 1037.52799,11.2280062 1039.096,9.996 C1039.992,9.32399664 1041.05599,8.96000028 1042.288,8.904 C1043.52001,8.84799972 1044.612,9.15599664 1045.564,9.828 C1046.62801,10.6120039 1047.3,11.7319927 1047.58,13.188 C1047.692,13.4680014 1047.748,13.803998 1047.748,14.196 L1047.748,15.372 L1039.936,15.372 C1039.992,15.9320028 1040.216,16.407998 1040.608,16.8 C1041.392,17.5840039 1042.42799,17.8640011 1043.716,17.64 C1044.5,17.5279994 1045.172,17.2200025 1045.732,16.716 L1046.992,18.564 L1046.068,19.236 C1045.284,19.628002 1044.416,19.8799994 1043.464,19.992 L1043.128,19.992 L1042.204,19.992 Z M1039.936,13.44 L1045.06,13.44 C1045.116,12.8239969 1044.878,12.2920022 1044.346,11.844 C1043.814,11.3959978 1043.184,11.172 1042.456,11.172 C1041.728,11.172 1041.112,11.4099976 1040.608,11.886 C1040.104,12.3620024 1039.88,12.8799972 1039.936,13.44 L1039.936,13.44 Z M990.376,19.992 C989.815997,19.8799994 989.480001,19.824 989.368,19.824 C988.359995,19.5999989 987.562003,19.1240036 986.974,18.396 C986.385997,17.6679964 986.092,16.7720053 986.092,15.708 L986.092,9.24 L988.864,9.24 L988.864,15.372 C988.864,16.380005 989.227996,17.0519983 989.956,17.388 C990.908005,17.8360022 991.775996,17.7520031 992.56,17.136 C993.064003,16.7999983 993.344,16.2120042 993.4,15.372 L993.4,9.24 L996.088,9.24 L996.088,15.624 C996.088,16.8560062 995.738004,17.8639961 995.038,18.648 C994.337997,19.4320039 993.400006,19.8799994 992.224,19.992 L991.804,20.076 L990.376,19.992 Z M1016.668,19.74 L1016.668,5.208 L1026.748,5.208 L1026.748,7.476 C1026.804,7.7560014 1026.692,7.896 1026.412,7.896 L1019.776,7.896 L1019.776,10.92 L1024.648,10.92 C1024.928,10.92 1025.068,11.0599986 1025.068,11.34 L1025.068,13.608 L1019.776,13.608 L1019.776,19.74 L1016.668,19.74 Z M1048.42,19.74 L1048.42,9.576 C1048.42,9.35199888 1048.448,9.22600014 1048.504,9.198 C1048.56,9.16999986 1048.7,9.156 1048.924,9.156 C1048.644,9.156 1049.39999,9.156 1051.192,9.156 C1052.088,9.156 1052.844,9.18399972 1053.46,9.24 C1055.81201,9.40800084 1057.38,10.4999899 1058.164,12.516 C1058.556,13.5800053 1058.612,14.6719944 1058.332,15.792 C1058.052,16.9120056 1057.492,17.8079966 1056.652,18.48 C1055.7,19.2640039 1054.58001,19.6839997 1053.292,19.74 L1048.42,19.74 Z M1051.108,17.472 L1052.62,17.472 C1053.516,17.472 1054.244,17.2340024 1054.804,16.758 C1055.364,16.2819976 1055.672,15.5960045 1055.728,14.7 C1055.84,14.0279966 1055.742,13.4120028 1055.434,12.852 C1055.126,12.2919972 1054.692,11.9000011 1054.132,11.676 C1053.74,11.5079992 1053.236,11.424 1052.62,11.424 L1051.108,11.424 L1051.108,17.472 Z M1001.716,11.592 L997.012,11.592 L997.012,9.24 L1005.58,9.24 L1005.58,10.584 C1005.58,10.976002 1005.44,11.3119986 1005.16,11.592 L1000.708,17.304 L1005.58,17.304 L1005.58,19.74 L997.012,19.74 L997.012,17.724 C997.012,17.6679997 997.067999,17.5560008 997.18,17.388 L1001.548,11.928 L1001.716,11.592 Z M1006.336,11.592 L1006.336,9.492 L1006.42,9.24 L1014.904,9.24 L1014.904,11.088 C1014.904,11.1440003 1014.848,11.2559992 1014.736,11.424 L1010.116,17.304 L1014.652,17.304 C1014.876,17.304 1014.988,17.4159989 1014.988,17.64 L1014.988,19.74 L1006.42,19.74 L1006.42,17.724 C1006.42,17.6679997 1006.448,17.5840006 1006.504,17.472 L1011.124,11.592 L1006.336,11.592 Z" id="BuzzFeed"></path>
            </g>
        </g>
    </g>
</svg>