<?xml version="1.0" encoding="UTF-8"?>
<svg width="17px" height="17px" viewBox="0 0 17 17" version="1.1" xmlns="http://www.w3.org/2000/svg" xmlns:xlink="http://www.w3.org/1999/xlink">
    <!-- Generator: Sketch 39.1 (31720) - http://www.bohemiancoding.com/sketch -->
    <title>dribbble</title>
    <desc>Created with Sketch.</desc>
    <defs></defs>
    <g id="Symbols" stroke="none" stroke-width="1" fill="none" fill-rule="evenodd">
        <g id="Footer" transform="translate(-1209.000000, -94.000000)" fill="#FFFFFF">
            <g id="soc" transform="translate(1133.000000, 94.000000)">
                <path d="M84.6744628,0.816 C83.2464557,0.816 81.9204689,1.1759964 80.6964628,1.896 C79.5084569,2.59200348 78.5664663,3.53399406 77.8704628,4.722 C77.1624593,5.94600612 76.8084628,7.27199286 76.8084628,8.7 C76.8084628,10.1280071 77.1624593,11.4539939 77.8704628,12.678 C78.5664663,13.8660059 79.5084569,14.8079965 80.6964628,15.504 C81.9204689,16.2240036 83.2464557,16.581 84.6744628,16.575 C86.1024699,16.569 87.4284567,16.2120035 88.6524628,15.504 C89.8404687,14.8079965 90.7824593,13.8660059 91.4784628,12.678 C92.1864663,11.4539939 92.5434628,10.1280071 92.5494628,8.7 C92.5554628,7.27199286 92.1984664,5.94600612 91.4784628,4.722 C90.7824593,3.53399406 89.8404687,2.59200348 88.6524628,1.896 C87.4284567,1.18799646 86.1024699,0.834 84.6744628,0.834 L84.6744628,0.816 Z M89.4984628,4.902 C89.8944648,5.40600252 90.2034617,5.95499703 90.4254628,6.549 C90.6474639,7.14300297 90.7764626,7.76399676 90.8124628,8.412 C89.9364584,8.21999904 89.0964668,8.124 88.2924628,8.124 C87.6924598,8.124 87.0984657,8.17799946 86.5104628,8.286 C86.3904622,7.99799856 86.2524636,7.68000174 86.0964628,7.332 C87.4764697,6.71999694 88.6104584,5.91000504 89.4984628,4.902 L89.4984628,4.902 Z M84.6744628,2.562 C85.3824663,2.562 86.0634595,2.67899883 86.7174628,2.913 C87.3714661,3.14700117 87.9684601,3.47999784 88.5084628,3.912 C87.7644591,4.80000444 86.7564692,5.51999724 85.4844628,6.072 C84.8364596,4.79999364 84.1284666,3.67800486 83.3604628,2.706 C83.804465,2.60999952 84.2424606,2.562 84.6744628,2.562 L84.6744628,2.562 Z M81.9564628,3.192 C82.7244666,4.0920045 83.4564593,5.20799334 84.1524628,6.54 C83.3124586,6.79200126 82.4124676,6.97199946 81.4524628,7.08 C80.7204591,7.17600048 80.0004663,7.224 79.2924628,7.224 L78.7164628,7.206 C78.9324639,6.32999562 79.32546,5.54100351 79.8954628,4.839 C80.4654657,4.13699649 81.1524588,3.58800198 81.9564628,3.192 L81.9564628,3.192 Z M78.5364628,8.7 L78.5364628,8.61 C78.7404638,8.62200006 78.9624616,8.628 79.2024628,8.628 C81.2784732,8.61599994 83.1384546,8.34600264 84.7824628,7.818 C84.9144635,8.10600144 85.0344623,8.37599874 85.1424628,8.628 C83.8584564,9.06000216 82.7064679,9.74399532 81.6864628,10.68 C81.0264595,11.280003 80.4624651,11.9399964 79.9944628,12.66 C79.5264605,12.1079972 79.1664641,11.4960034 78.9144628,10.824 C78.6624615,10.1519966 78.5364628,9.44400372 78.5364628,8.7 L78.5364628,8.7 Z M84.6744628,14.838 C84.0024594,14.838 83.3574659,14.733001 82.7394628,14.523 C82.1214597,14.3129989 81.5484654,14.0160019 81.0204628,13.632 C81.4044647,13.0079969 81.87846,12.4260027 82.4424628,11.886 C83.3904675,10.9739954 84.4584569,10.3260019 85.6464628,9.942 C86.1504653,11.3700071 86.5524613,12.8699921 86.8524628,14.442 C86.1444593,14.7060013 85.4184665,14.838 84.6744628,14.838 L84.6744628,14.838 Z M88.1484628,13.758 C87.8604614,12.3299929 87.4824651,10.9500067 87.0144628,9.618 C87.4344649,9.5579997 87.8544607,9.528 88.2744628,9.528 L88.2924628,9.528 C89.0484666,9.528 89.8524585,9.62399904 90.7044628,9.816 C90.5604621,10.6320041 90.2634651,11.3789966 89.8134628,12.057 C89.3634606,12.7350034 88.8084661,13.3019977 88.1484628,13.758 L88.1484628,13.758 Z" id="dribbble"></path>
            </g>
        </g>
    </g>
</svg>