<?xml version="1.0" encoding="UTF-8" standalone="no"?>
<svg width="85px" height="23px" viewBox="0 0 85 23" version="1.1" xmlns="http://www.w3.org/2000/svg" xmlns:xlink="http://www.w3.org/1999/xlink">
    <!-- Generator: Sketch 39.1 (31720) - http://www.bohemiancoding.com/sketch -->
    <title>Forbes</title>
    <desc>Created with Sketch.</desc>
    <defs></defs>
    <g id="Symbols" stroke="none" stroke-width="1" fill="none" fill-rule="evenodd" opacity="0.400000006">
        <g id="Partners" transform="translate(-581.000000, -124.000000)" fill="#5A7C8E">
            <g id="logos" transform="translate(191.000000, 123.000000)">
                <path d="M397.728,3.528 L399.996,3.528 L402.18,3.528 L402.684,3.696 C403.860006,4.14400224 404.811996,5.09599272 405.54,6.552 C405.708001,7.00000224 405.847999,7.3639986 405.96,7.644 L406.128,8.148 C406.184,8.148 406.323999,8.12000028 406.548,8.064 L407.052,7.896 L406.884,2.184 L390,2.184 L390,2.856 L390.588,2.94 C391.204003,2.99600028 391.623999,3.13599888 391.848,3.36 C392.296002,3.6400014 392.603999,4.14399636 392.772,4.872 C392.996001,5.93600532 393.108,8.81997648 393.108,13.524 C393.052,16.1000129 392.996,17.8219957 392.94,18.69 C392.884,19.5580043 392.772001,20.2439975 392.604,20.748 C392.379999,21.5880042 391.848004,22.0919992 391.008,22.26 L390.084,22.428 L390.084,23.1 L400.836,23.1 L400.836,22.764 L400.836,22.428 C400.667999,22.428 400.346002,22.3720006 399.87,22.26 C399.393998,22.1479994 399.100001,22.0640003 398.988,22.008 C398.595998,21.7839989 398.302001,21.4200025 398.106,20.916 C397.909999,20.4119975 397.784,19.6840048 397.728,18.732 C397.672,18.0599966 397.616,16.9680076 397.56,15.456 C397.504,13.9439924 397.504,13.1740001 397.56,13.146 C397.616,13.1179999 398.077996,13.1319997 398.946,13.188 C399.814004,13.2440003 400.331999,13.272 400.5,13.272 C401.340004,13.4960011 401.927998,14.2519936 402.264,15.54 L402.432,16.128 L403.104,16.128 L403.104,9.156 L402.432,9.156 C402.376,9.156 402.348,9.18399972 402.348,9.24 C402.348,9.57600168 402.194002,10.0799966 401.886,10.752 C401.577998,11.4240034 401.116003,11.8159994 400.5,11.928 C400.275999,11.9840003 399.744004,12.0399997 398.904,12.096 C398.063996,12.1520003 397.616,12.1520003 397.56,12.096 C397.504,12.0399997 397.504,10.6680134 397.56,7.98 C397.616,5.29198656 397.672,3.83600112 397.728,3.612 L397.728,3.528 Z M417.384,9.492 C416.151994,8.31599412 414.52801,7.728 412.512,7.728 C410.327989,7.728 408.564007,8.39999328 407.22,9.744 C405.763993,11.2560076 405.036,13.2439877 405.036,15.708 C405.036,18.1720123 405.707993,20.103993 407.052,21.504 C407.724003,22.1760034 408.563995,22.707998 409.572,23.1 C409.796001,23.1560003 410.327996,23.2679992 411.168,23.436 L412.428,23.436 C413.156004,23.436 413.687998,23.3800006 414.024,23.268 C415.032005,23.0439989 415.927996,22.6520028 416.712,22.092 C418.560009,20.691993 419.539999,18.6200137 419.652,15.876 C419.764001,13.1319863 419.008008,11.0040076 417.384,9.492 L417.384,9.492 Z M414.276,21.168 C413.939998,21.8400034 413.520003,22.2319994 413.016,22.344 C412.175996,22.6240014 411.476003,22.3720039 410.916,21.588 C410.355997,20.8039961 409.936001,19.6000081 409.656,17.976 C409.6,17.4159972 409.572,16.5620057 409.572,15.414 C409.572,14.2659943 409.627999,13.3840031 409.74,12.768 C410.020001,10.0799866 410.831993,8.736 412.176,8.736 C412.680003,8.736 413.127998,8.93199804 413.52,9.324 C414.584005,10.4440056 415.116,12.599984 415.116,15.792 C415.116,18.3120126 414.836003,20.1039947 414.276,21.168 L414.276,21.168 Z M473.664,16.632 C473.383999,16.0719972 472.992003,15.6100018 472.488,15.246 C471.983997,14.8819982 471.200005,14.4760022 470.136,14.028 C468.511992,13.3559966 467.532002,12.7680025 467.196,12.264 C466.915999,11.9279983 466.776,11.4800028 466.776,10.92 C466.776,10.0799958 467.069997,9.47800182 467.658,9.114 C468.246003,8.74999818 468.945996,8.66599902 469.758,8.862 C470.570004,9.05800098 471.255997,9.63199524 471.816,10.584 C472.152002,11.1440028 472.431999,11.7599966 472.656,12.432 C472.656,12.4880003 472.739999,12.4880003 472.908,12.432 L473.16,12.348 L473.16,8.484 L472.908,8.4 C472.459998,8.23199916 471.816004,8.06400084 470.976,7.896 C470.583998,7.83999972 469.912005,7.812 468.96,7.812 C468.007995,7.812 467.336002,7.83999972 466.944,7.896 C465.263992,8.40000252 464.116003,9.29599356 463.5,10.584 C463.219999,11.2000031 463.08,11.8719964 463.08,12.6 C463.08,13.7200056 463.415997,14.6159966 464.088,15.288 C464.592003,15.9040031 465.459994,16.4359978 466.692,16.884 C467.924006,17.3320022 468.791997,17.751998 469.296,18.144 C469.520001,18.3120008 469.687999,18.5359986 469.8,18.816 L470.052,19.236 L470.052,19.866 C470.052,20.1740015 469.968001,20.4959983 469.8,20.832 C469.407998,21.840005 468.568006,22.2880006 467.28,22.176 C466.495996,22.1199997 465.796003,21.8120028 465.18,21.252 C464.563997,20.6919972 464.004003,19.8240059 463.5,18.648 C463.387999,18.3679986 463.304,18.2140001 463.248,18.186 C463.192,18.1579999 463.080001,18.1719997 462.912,18.228 L462.744,18.228 L462.828,22.176 C462.828,22.4560014 462.87,22.6239997 462.954,22.68 C463.038,22.7360003 463.429997,22.8479992 464.13,23.016 C464.830004,23.1840008 465.487997,23.2959997 466.104,23.352 C467.280006,23.5200008 468.315996,23.5200008 469.212,23.352 C470.500006,23.1839992 471.549996,22.7640034 472.362,22.092 C473.174004,21.4199966 473.691999,20.5520053 473.916,19.488 C474.140001,18.4239947 474.056002,17.4720042 473.664,16.632 L473.664,16.632 Z M457.872,8.148 C457.255997,7.8679986 456.500004,7.728 455.604,7.728 C453.58799,7.728 451.908007,8.427993 450.564,9.828 C449.555995,10.836005 448.856002,12.1799916 448.464,13.86 C448.408,14.1960017 448.38,14.8119955 448.38,15.708 C448.38,16.6040045 448.408,17.2199983 448.464,17.556 C448.800002,19.1240078 449.485995,20.411995 450.522,21.42 C451.558005,22.428005 452.831992,23.0719986 454.344,23.352 C455.184004,23.5200008 456.051996,23.5200008 456.948,23.352 C458.404007,23.1279989 459.635995,22.5400048 460.644,21.588 C461.148003,21.0839975 461.372,20.7620007 461.316,20.622 C461.26,20.4819993 461.19,20.412 461.106,20.412 C461.022,20.412 460.868001,20.4679994 460.644,20.58 C460.251998,20.8600014 459.902002,21.0419996 459.594,21.126 C459.285998,21.2100004 458.880003,21.2799997 458.376,21.336 C457.255994,21.4480006 456.248004,21.2800022 455.352,20.832 C455.015998,20.6639992 454.666002,20.4120017 454.302,20.076 C453.937998,19.7399983 453.672001,19.4040017 453.504,19.068 C452.999997,18.059995 452.72,16.9120064 452.664,15.624 C452.608,15.1759978 452.608,14.9380001 452.664,14.91 C452.72,14.8819999 454.231985,14.868 457.2,14.868 L461.652,14.868 L461.652,14.616 C461.652,14.0559972 461.568001,13.3840039 461.4,12.6 C460.895997,10.2479882 459.720009,8.76400308 457.872,8.148 L457.872,8.148 Z M457.116,13.608 L456.108,13.608 L452.832,13.692 L452.832,13.44 C452.832,13.2719992 452.86,13.0200017 452.916,12.684 C453.140001,11.4519938 453.461998,10.4860035 453.882,9.786 C454.302002,9.0859965 454.791997,8.736 455.352,8.736 C456.360005,8.736 456.947999,10.1079863 457.116,12.852 L457.116,13.608 Z M431.916,7.896 C431.467998,7.72799916 431.020002,7.67199972 430.572,7.728 L430.404,7.728 C428.835992,7.78400028 427.576005,8.70799104 426.624,10.5 C426.399999,10.892002 426.26,11.088 426.204,11.088 C426.148,11.088 426.148,10.5280056 426.204,9.408 L426.204,7.728 L423.432,8.316 C421.135989,8.76400224 419.974,9.00199986 419.946,9.03 C419.918,9.05800014 419.904,9.1419993 419.904,9.282 L419.904,9.492 L420.492,9.576 C420.996003,9.68800056 421.345999,9.8839986 421.542,10.164 C421.738001,10.4440014 421.864,10.8919969 421.92,11.508 C422.032001,12.4040045 422.074,14.0979875 422.046,16.59 C422.018,19.0820125 421.948001,20.5799975 421.836,21.084 C421.723999,21.5880025 421.500002,21.9239992 421.164,22.092 C420.995999,22.1480003 420.744002,22.2319994 420.408,22.344 L419.904,22.428 L419.904,23.1 L428.724,23.1 L428.724,22.428 L428.304,22.344 C427.743997,22.2879997 427.366001,22.2320003 427.17,22.176 C426.973999,22.1199997 426.792001,21.9660013 426.624,21.714 C426.455999,21.4619987 426.344,20.9580038 426.288,20.202 C426.232,19.4459962 426.204,17.9200115 426.204,15.624 L426.204,12.18 L426.288,12.012 C426.568001,11.7319986 426.959997,11.5360006 427.464,11.424 C428.416005,11.2559992 429.339996,11.3959978 430.236,11.844 C430.572002,12.0120008 430.74,12.0680003 430.74,12.012 L432.168,8.148 C432.224,8.09199972 432.140001,8.00800056 431.916,7.896 L431.916,7.896 Z M446.028,11.088 C445.635998,10.3039961 445.104003,9.64600266 444.432,9.114 C443.759997,8.58199734 443.032004,8.23200084 442.248,8.064 C441.631997,7.89599916 440.974004,7.86799944 440.274,7.98 C439.573997,8.09200056 438.944003,8.25999888 438.384,8.484 C437.991998,8.65200084 437.768,8.736 437.712,8.736 C437.656,8.736 437.628,7.56001176 437.628,5.208 L437.712,1.68 L431.496,2.856 C431.383999,2.91200028 431.342,2.99599944 431.37,3.108 C431.398,3.22000056 431.412,3.30399972 431.412,3.36 L431.664,3.444 C432.056002,3.50000028 432.307999,3.55599972 432.42,3.612 C432.532001,3.66800028 432.671999,3.77999916 432.84,3.948 C433.176002,4.28400168 433.372,4.8719958 433.428,5.712 C433.484,6.10400196 433.512,8.62397676 433.512,13.272 C433.512,17.9200232 433.484,20.7199952 433.428,21.672 L433.428,22.848 L434.016,22.932 C436.536013,23.4920028 438.607992,23.6600011 440.232,23.436 C442.024009,23.1559986 443.479994,22.4840053 444.6,21.42 C446.224008,19.7959919 447.008,17.5560143 446.952,14.7 C446.896,13.3559933 446.588003,12.1520053 446.028,11.088 L446.028,11.088 Z M442.248,17.136 C441.967999,19.3200109 441.352005,20.8599955 440.4,21.756 C440.063998,22.0920017 439.672002,22.2879997 439.224,22.344 C438.999999,22.4000003 438.692002,22.4000003 438.3,22.344 C438.075999,22.344 437.95,22.2880006 437.922,22.176 C437.894,22.0639994 437.852,20.706013 437.796,18.102 C437.74,15.497987 437.74,13.4680073 437.796,12.012 L437.796,9.828 L438.216,9.744 C438.496001,9.63199944 438.803998,9.576 439.14,9.576 C439.476002,9.576 439.811998,9.65999916 440.148,9.828 C441.212005,10.3320025 441.911998,11.5639902 442.248,13.524 C442.304,13.916002 442.332,14.5039961 442.332,15.288 C442.332,16.0720039 442.304,16.6879978 442.248,17.136 L442.248,17.136 Z" id="Forbes"></path>
            </g>
        </g>
    </g>
</svg>