<?xml version="1.0" encoding="UTF-8"?>
<svg width="16px" height="17px" viewBox="0 0 16 17" version="1.1" xmlns="http://www.w3.org/2000/svg" xmlns:xlink="http://www.w3.org/1999/xlink">
    <!-- Generator: Sketch 39.1 (31720) - http://www.bohemiancoding.com/sketch -->
    <title>instagram</title>
    <desc>Created with Sketch.</desc>
    <defs></defs>
    <g id="Symbols" stroke="none" stroke-width="1" fill="none" fill-rule="evenodd">
        <g id="Footer" transform="translate(-1249.000000, -94.000000)" fill="#FFFFFF">
            <g id="soc" transform="translate(1133.000000, 94.000000)">
                <path d="M127.135769,6.45 L131.689769,6.45 L131.689769,6.666 L131.689769,13.524 C131.689769,14.0760028 131.55177,14.5859977 131.275769,15.054 C130.999767,15.5220023 130.627771,15.8909986 130.159769,16.161 C129.691766,16.4310013 129.181771,16.566 128.629769,16.566 L119.089769,16.566 C118.537766,16.5780001 118.027771,16.4460014 117.559769,16.17 C117.091766,15.8939986 116.71677,15.5220023 116.434769,15.054 C116.152767,14.5859977 116.011769,14.0760028 116.011769,13.524 L116.011769,6.468 L120.565769,6.468 C119.797765,7.63200582 119.629766,8.8439937 120.061769,10.104 C120.36177,10.9560043 120.895765,11.6279975 121.663769,12.12 C122.167771,12.4560017 122.710766,12.6629996 123.292769,12.741 C123.874772,12.8190004 124.447766,12.7740008 125.011769,12.606 C125.575771,12.4379992 126.079766,12.156002 126.523769,11.76 C126.967771,11.363998 127.303767,10.8840028 127.531769,10.32 C127.78377,9.70799694 127.885769,9.08400318 127.837769,8.448 C127.777768,7.75199652 127.543771,7.08600318 127.135769,6.45 L127.135769,6.45 Z M117.955769,4.704 L117.955769,1.302 C117.955769,1.16999934 117.967768,1.08900015 117.991769,1.059 C118.015769,1.02899985 118.099768,0.99000024 118.243769,0.942 L118.405769,0.906 L118.405769,4.704 L119.053769,4.704 L119.053769,0.834 L119.467769,0.834 L119.467769,4.704 L120.115769,4.704 L120.115769,0.816 L128.629769,0.816 C129.169771,0.816 129.670766,0.95099865 130.132769,1.221 C130.594771,1.49100135 130.966767,1.85399772 131.248769,2.31 C131.53077,2.76600228 131.677769,3.25799736 131.689769,3.786 C131.701769,4.0860015 131.707769,4.4459979 131.707769,4.866 C131.695769,5.75400444 131.689769,6.12000078 131.689769,5.964 L126.865769,5.964 C126.757768,5.964 126.673769,5.92800036 126.613769,5.856 C126.085766,5.3759976 125.491772,5.05200084 124.831769,4.884 C124.171765,4.71599916 123.511772,4.71899913 122.851769,4.893 C122.191765,5.06700087 121.597771,5.3939976 121.069769,5.874 C121.009768,5.9340003 120.949769,5.964 120.889769,5.964 L116.119769,5.964 L116.029769,5.946 L116.029769,5.262 C116.017769,5.40600072 116.011769,5.13000348 116.011769,4.434 C116.011769,4.10999838 116.023768,3.83400114 116.047769,3.606 C116.107769,2.72999562 116.509765,2.00400288 117.253769,1.428 L117.325769,1.41 L117.325769,4.704 L117.955769,4.704 Z M130.267769,3.462 C130.267769,3.462 130.267769,3.32400138 130.267769,3.048 L130.267769,2.634 C130.267769,2.47799922 130.222769,2.35500045 130.132769,2.265 C130.042768,2.17499955 129.925769,2.13 129.781769,2.13 C129.229766,2.11799994 128.671771,2.11799994 128.107769,2.13 C127.951768,2.13 127.831769,2.17799952 127.747769,2.274 C127.663768,2.37000048 127.621769,2.49599922 127.621769,2.652 L127.621769,4.308 C127.621769,4.46400078 127.666768,4.58699955 127.756769,4.677 C127.846769,4.76700045 127.963768,4.812 128.107769,4.812 L129.763769,4.812 C129.919769,4.812 130.042768,4.76700045 130.132769,4.677 C130.222769,4.58699955 130.267769,4.46400078 130.267769,4.308 L130.267769,3.462 Z M123.859769,11.85 C123.295766,11.85 122.773771,11.7150013 122.293769,11.445 C121.813766,11.1749986 121.43577,10.8030024 121.159769,10.329 C120.883767,9.85499763 120.745769,9.33900279 120.745769,8.781 C120.745769,8.22299721 120.883767,7.70700237 121.159769,7.233 C121.43577,6.75899763 121.813766,6.38100141 122.293769,6.099 C122.773771,5.81699859 123.292766,5.676 123.850769,5.676 C124.408771,5.676 124.924766,5.81699859 125.398769,6.099 C125.872771,6.38100141 126.247767,6.75899763 126.523769,7.233 C126.79977,7.70700237 126.937769,8.22299721 126.937769,8.781 C126.937769,9.33900279 126.79977,9.85499763 126.523769,10.329 C126.247767,10.8030024 125.872771,11.1749986 125.398769,11.445 C124.924766,11.7150013 124.411771,11.85 123.859769,11.85 L123.859769,11.85 Z M126.127769,8.772 C126.127769,8.36399796 126.02577,7.98300177 125.821769,7.629 C125.617768,7.27499823 125.34177,6.99600102 124.993769,6.792 C124.645767,6.58799898 124.264771,6.486 123.850769,6.486 C123.436767,6.486 123.05577,6.58799898 122.707769,6.792 C122.359767,6.99600102 122.08377,7.27199826 121.879769,7.62 C121.675768,7.96800174 121.573769,8.34899793 121.573769,8.763 C121.573769,9.17700207 121.675768,9.55799826 121.879769,9.906 C122.08377,10.2540017 122.359767,10.5329989 122.707769,10.743 C123.05577,10.953001 123.436767,11.058 123.850769,11.058 C124.264771,11.058 124.645767,10.956001 124.993769,10.752 C125.34177,10.547999 125.617768,10.2720017 125.821769,9.924 C126.02577,9.57599826 126.127769,9.1920021 126.127769,8.772 L126.127769,8.772 Z" id="instagram"></path>
            </g>
        </g>
    </g>
</svg>