<?xml version="1.0" encoding="UTF-8" standalone="no"?>
<svg width="85px" height="24px" viewBox="0 0 85 24" version="1.1" xmlns="http://www.w3.org/2000/svg" xmlns:xlink="http://www.w3.org/1999/xlink">
    <!-- Generator: Sketch 39.1 (31720) - http://www.bohemiancoding.com/sketch -->
    <title>lifehacker</title>
    <desc>Created with Sketch.</desc>
    <defs></defs>
    <g id="Symbols" stroke="none" stroke-width="1" fill="none" fill-rule="evenodd" opacity="0.400000006">
        <g id="Partners" transform="translate(-970.000000, -124.000000)" fill="#5A7C8E">
            <g id="logos" transform="translate(191.000000, 123.000000)">
                <path d="M842.5,13.692 L842.416,13.608 L846.196,7.224 L843.928,7.224 L840.484,12.936 L840.232,13.44 L840.232,13.692 L840.4,14.112 L844.264,20.832 L846.448,20.832 L842.5,13.692 Z M838.048,1.596 L838.048,20.832 L839.98,20.832 L839.98,1.428 L838.048,1.428 L838.048,1.596 Z M863.08,7.392 C862.967999,7.33599972 862.828001,7.28000028 862.66,7.224 L862.324,7.14 C862.043999,7.08399972 861.792001,7.056 861.568,7.056 L861.232,7.056 L860.14,7.308 L859.468,7.56 L858.544,8.316 L857.872,9.24 L857.452,10.5 L857.368,20.916 L859.3,20.916 L859.3,11.172 C859.3,10.5559969 859.523998,10.052002 859.972,9.66 L860.224,9.408 C860.448001,9.23999916 860.699999,9.12800028 860.98,9.072 L861.232,9.072 L863.416,9.072 L863.5,7.56 L863.08,7.392 Z M855.016,10.752 L855.016,10.584 L854.764,9.66 L854.512,9.156 L853.672,8.064 L852.244,7.224 L851.068,7.056 L850.648,7.056 L849.808,7.308 L848.632,7.896 L847.96,8.568 L847.288,9.828 L847.12,10.668 L847.12,17.388 L847.372,18.48 L847.708,19.152 L847.708,19.236 L848.128,19.908 L848.548,20.328 L849.304,20.748 L850.144,21 L851.236,21 L853.672,20.664 L853.504,19.152 L850.984,19.068 L850.396,18.984 L849.808,18.564 L849.556,18.312 L849.304,17.808 L849.22,17.388 L849.22,15.036 L854.008,15.036 C854.288001,15.036 854.525999,14.9520008 854.722,14.784 C854.918001,14.6159992 855.016,14.3920014 855.016,14.112 L855.016,10.752 Z M853.084,11.004 L853.084,13.104 L849.22,13.104 L849.22,11.004 C849.22,10.5559978 849.345999,10.1640017 849.598,9.828 C849.850001,9.49199832 850.171998,9.26800056 850.564,9.156 C850.732001,9.09999972 850.927999,9.072 851.152,9.072 L851.488,9.072 L851.908,9.24 L852.412,9.576 L852.748,9.912 L852.916,10.248 L853.084,11.004 Z M835.78,10.836 L835.78,10.668 L835.612,9.744 L835.276,9.156 L834.856,8.4 L834.436,8.064 L834.016,7.728 L833.008,7.224 L831.832,6.972 L831.58,7.056 L831.244,7.056 L830.656,7.224 C830.6,7.224 830.572,7.224 830.572,7.224 L829.228,8.064 L828.808,8.568 L828.472,9.072 L828.136,9.996 C828.023999,10.2760014 827.968,10.5839983 827.968,10.92 L828.052,17.724 L828.304,18.732 L828.724,19.404 L829.312,20.076 L829.9,20.496 L830.824,20.916 L831.916,21.084 L833.092,20.832 L833.932,20.412 L834.772,19.74 L835.444,18.648 L835.78,17.304 L833.848,17.22 L833.764,17.388 C833.764,17.5560008 833.736,17.6959994 833.68,17.808 C833.567999,18.1440017 833.344002,18.4379987 833.008,18.69 C832.671998,18.9420013 832.280002,19.068 831.832,19.068 L831.496,18.984 L830.824,18.732 L830.404,18.312 L830.068,17.724 L829.9,17.136 L829.9,10.92 C829.956,10.3039969 830.207998,9.82800168 830.656,9.492 C830.992002,9.15599832 831.383998,8.988 831.832,8.988 L832.168,9.072 L832.924,9.324 L833.344,9.66 C833.288,9.66 833.288,9.66 833.344,9.66 L833.596,9.996 L833.764,10.5 L833.764,11.172 L833.932,11.256 L835.78,11.172 L835.696,10.752 C835.752,10.8080003 835.78,10.836 835.78,10.836 L835.78,10.836 Z M825.364,11.004 L825.364,10.92 L825.28,10.5 L824.776,9.24 L824.104,8.232 L823.6,7.812 L822.844,7.392 L821.668,7.056 L820.828,7.056 L820.156,7.14 L818.812,7.56 L818.728,7.56 L818.812,9.072 L821.5,8.904 L821.416,8.904 L821.752,8.904 L822.172,8.904 L822.676,9.156 L823.096,9.66 L823.348,10.248 L823.348,12.348 L820.996,12.096 L819.232,12.684 L818.224,13.608 L817.552,15.12 L817.468,17.472 L817.636,18.312 L817.804,18.648 L818.392,19.656 L819.4,20.496 L820.324,20.916 L821.416,21.084 C822.200004,21.084 822.927997,20.8320025 823.6,20.328 C824.104003,19.9919983 824.495999,19.5440028 824.776,18.984 C825.056001,18.4239972 825.196,17.8080034 825.196,17.136 L825.196,11.172 C825.308001,11.1159997 825.364,11.0600003 825.364,11.004 L825.364,11.004 Z M823.432,14.028 L823.432,17.136 C823.432,17.3040008 823.376001,17.4999989 823.264,17.724 C823.151999,18.0600017 822.956001,18.3539987 822.676,18.606 C822.395999,18.8580013 822.060002,19.0119997 821.668,19.068 L821.5,19.068 L820.912,18.984 L820.24,18.564 L819.82,18.06 L819.568,17.472 L819.568,15.708 C819.568,15.1479972 819.749998,14.6860018 820.114,14.322 C820.478002,13.9579982 820.939997,13.776 821.5,13.776 L823.348,13.776 L823.348,14.028 L823.432,14.028 Z M815.2,11.088 L815.116,10.92 L814.948,9.744 L814.528,8.82 L813.856,8.064 L813.184,7.56 L812.512,7.224 L811.924,7.056 L810.664,7.056 L810.748,7.056 L809.404,7.308 L809.404,1.428 L807.472,1.428 L807.472,20.832 L809.404,20.832 L809.404,9.24 L811.756,9.324 L812.428,9.576 L812.848,9.912 L812.848,9.996 L813.184,10.5 L813.268,10.836 L813.268,20.916 L815.284,20.916 L815.284,11.172 L815.2,11.088 Z M805.036,10.752 L805.036,10.248 L804.7,9.324 L804.112,8.232 L804.028,8.232 L803.608,7.812 L802.852,7.224 L801.088,6.72 L799.996,6.72 L798.652,7.308 L797.728,8.064 L797.056,8.988 L796.636,9.912 C796.58,10.2480017 796.552,10.5839983 796.552,10.92 L796.552,16.8 L796.552,17.304 L796.72,18.06 L797.224,19.152 L797.308,19.404 L797.98,20.16 L798.652,20.58 L799.576,20.916 L800.752,21 L803.86,20.58 L803.692,17.976 L800.668,17.976 L800.08,17.724 L799.828,17.472 L799.576,16.968 L799.576,15.456 L803.524,15.456 C803.972002,15.456 804.335999,15.3020015 804.616,14.994 C804.896001,14.6859985 805.036,14.3080022 805.036,13.86 L805.036,10.92 L805.036,10.752 Z M802.012,12.432 L799.66,12.432 L799.66,10.92 C799.66,10.6399986 799.771999,10.3880011 799.996,10.164 C800.220001,9.93999888 800.499998,9.828 800.836,9.828 L801.34,9.912 L801.76,10.332 L802.012,10.92 L802.012,12.432 Z M795.376,1.428 C795.376,1.428 795.348,1.40000028 795.292,1.344 L795.124,1.26 L793.528,1.008 L792.52,1.26 L791.68,1.68 L790.924,2.268 L790.252,3.108 L789.664,4.452 L789.58,4.956 L789.496,24.108 L792.604,23.94 L792.604,12.768 L794.956,12.768 L794.956,9.66 L792.688,9.66 L792.688,5.544 C792.688,5.20799832 792.799999,4.92800112 793.024,4.704 C793.248001,4.47999888 793.527998,4.368 793.864,4.368 L795.292,4.368 L795.376,1.428 Z M779.5,1.512 L779.5,20.832 L782.608,20.832 L782.608,1.764 L779.668,1.596 L779.5,1.512 Z M787.816,4.2 L787.732,3.78 L787.312,3.108 L786.556,2.772 L786.052,2.688 L785.548,2.772 L785.296,2.856 L784.708,3.276 L784.372,3.864 L784.288,4.788 L784.54,5.292 L785.044,5.88 L785.38,6.048 L786.052,6.216 L786.472,6.132 L787.06,5.88 L787.48,5.46 L787.816,4.452 L787.816,4.284 L787.816,4.2 Z M784.54,6.972 L784.54,20.832 L787.648,20.832 L787.648,7.056 L784.54,6.888 L784.54,6.972 Z" id="lifehacker"></path>
            </g>
        </g>
    </g>
</svg>