<?xml version="1.0" encoding="UTF-8"?>
<svg width="16px" height="17px" viewBox="0 0 16 17" version="1.1" xmlns="http://www.w3.org/2000/svg" xmlns:xlink="http://www.w3.org/1999/xlink">
    <!-- Generator: Sketch 39.1 (31720) - http://www.bohemiancoding.com/sketch -->
    <title>linkedin</title>
    <desc>Created with Sketch.</desc>
    <defs></defs>
    <g id="Symbols" stroke="none" stroke-width="1" fill="none" fill-rule="evenodd">
        <g id="Footer" transform="translate(-1288.000000, -94.000000)" fill="#FFFFFF">
            <g id="soc" transform="translate(1133.000000, 94.000000)">
                <path d="M169.678,0.816 L156.34,0.816 C156.015998,0.816 155.740001,0.92699889 155.512,1.149 C155.283999,1.37100111 155.17,1.63799844 155.17,1.95 L155.17,15.45 C155.17,15.7620016 155.283999,16.0259989 155.512,16.242 C155.740001,16.4580011 156.009998,16.566 156.322,16.566 L169.678,16.566 C169.990002,16.566 170.259999,16.4580011 170.488,16.242 C170.716001,16.0259989 170.83,15.7620016 170.83,15.45 L170.83,1.95 C170.83,1.63799844 170.716001,1.37100111 170.488,1.149 C170.259999,0.92699889 169.984002,0.816 169.66,0.816 L169.678,0.816 Z M159.922,14.01 L157.564,14.01 L157.564,6.9 L159.922,6.9 L159.922,14.01 Z M158.734,5.928 L158.716,5.928 C158.331998,5.928 158.020001,5.81100117 157.78,5.577 C157.539999,5.34299883 157.42,5.04900177 157.42,4.695 C157.42,4.34099823 157.542999,4.04700117 157.789,3.813 C158.035001,3.57899883 158.355998,3.462 158.752,3.462 C159.148002,3.462 159.465999,3.57899883 159.706,3.813 C159.946001,4.04700117 160.066,4.34099823 160.066,4.695 C160.066,5.04900177 159.946001,5.34299883 159.706,5.577 C159.465999,5.81100117 159.142002,5.928 158.734,5.928 L158.734,5.928 Z M168.436,14.01 L166.078,14.01 L166.078,10.194 C166.078,9.70199754 165.988001,9.31800138 165.808,9.042 C165.603999,8.7419985 165.298002,8.592 164.89,8.592 C164.577998,8.592 164.314001,8.6819991 164.098,8.862 C163.905999,9.01800078 163.762,9.2159988 163.666,9.456 C163.618,9.58800066 163.594,9.77999874 163.594,10.032 L163.594,14.01 L161.236,14.01 L161.236,10.698 C161.248,8.44198872 161.248,7.17600138 161.236,6.9 L163.594,6.9 L163.594,7.908 C163.810001,7.57199832 164.043999,7.3140009 164.296,7.134 C164.692002,6.86999868 165.165997,6.738 165.718,6.738 C166.534004,6.738 167.181998,6.99599742 167.662,7.512 C168.178003,8.07600282 168.436,8.87999478 168.436,9.924 L168.436,14.01 Z" id="linkedin"></path>
            </g>
        </g>
    </g>
</svg>