<?xml version="1.0" encoding="UTF-8" standalone="no"?>
<svg width="152px" height="26px" viewBox="0 0 152 26" version="1.1" xmlns="http://www.w3.org/2000/svg" xmlns:xlink="http://www.w3.org/1999/xlink">
    <!-- Generator: Sketch 39.1 (31720) - http://www.bohemiancoding.com/sketch -->
    <title>logo</title>
    <desc>Created with Sketch.</desc>
    <defs></defs>
    <g id="Symbols" stroke="none" stroke-width="1" fill="none" fill-rule="evenodd">
        <g id="Header" transform="translate(-135.000000, -29.000000)" fill="#1D1D1D">
            <g id="nav">
                <g transform="translate(135.000000, 29.000000)">
                    <g id="logo">
                        <path d="M11.111686,1.25164364 L11.111686,11.585389 L3.76928799,1.25164364 L0.505999976,1.25164364 L0.505999976,20.2874904 L4.85705066,20.2874904 L4.85705066,9.953745 L12.1994487,20.2874904 L15.4627367,20.2874904 L15.4627367,1.25164364 L11.111686,1.25164364 Z M19.6407342,5.49391805 C20.9732435,5.49391805 22.0882002,4.37896131 22.0882002,3.04645204 C22.0882002,1.71394277 20.9732435,0.598986033 19.6407342,0.598986033 C18.3082249,0.598986033 17.1932682,1.71394277 17.1932682,3.04645204 C17.1932682,4.37896131 18.3082249,5.49391805 19.6407342,5.49391805 L19.6407342,5.49391805 Z M17.6011792,20.2874904 L21.6802892,20.2874904 L21.6802892,6.69045699 L17.6011792,6.69045699 L17.6011792,20.2874904 Z M31.8137874,6.30974006 C29.9917849,6.30974006 28.6592756,6.93520359 27.7618714,7.96857813 L27.7618714,6.69045699 L23.6827614,6.69045699 L23.6827614,25.7263037 L27.7618714,25.7263037 L27.7618714,19.0093692 C28.6592756,20.0427438 29.9917849,20.6682073 31.8137874,20.6682073 C35.3762101,20.6682073 38.3131693,17.5408896 38.3131693,13.4889737 C38.3131693,9.43705773 35.3762101,6.30974006 31.8137874,6.30974006 L31.8137874,6.30974006 Z M30.9979654,16.8066498 C29.1215748,16.8066498 27.7618714,15.5285287 27.7618714,13.4889737 C27.7618714,11.4494187 29.1215748,10.1712975 30.9979654,10.1712975 C32.874356,10.1712975 34.2340593,11.4494187 34.2340593,13.4889737 C34.2340593,15.5285287 32.874356,16.8066498 30.9979654,16.8066498 L30.9979654,16.8066498 Z M47.7668158,6.30974006 C45.9448133,6.30974006 44.612304,6.93520359 43.7148998,7.96857813 L43.7148998,6.69045699 L39.6357898,6.69045699 L39.6357898,25.7263037 L43.7148998,25.7263037 L43.7148998,19.0093692 C44.612304,20.0427438 45.9448133,20.6682073 47.7668158,20.6682073 C51.3292385,20.6682073 54.2661978,17.5408896 54.2661978,13.4889737 C54.2661978,9.43705773 51.3292385,6.30974006 47.7668158,6.30974006 L47.7668158,6.30974006 Z M46.9509938,16.8066498 C45.0746032,16.8066498 43.7148998,15.5285287 43.7148998,13.4889737 C43.7148998,11.4494187 45.0746032,10.1712975 46.9509938,10.1712975 C48.8273844,10.1712975 50.1870877,11.4494187 50.1870877,13.4889737 C50.1870877,15.5285287 48.8273844,16.8066498 46.9509938,16.8066498 L46.9509938,16.8066498 Z M64.1549493,6.69045699 L61.598707,15.0118414 L58.5801656,6.69045699 L54.0931446,6.69045699 L59.5047639,19.6620268 C58.9064944,21.3208649 58.0090902,21.9191344 56.1055055,21.9191344 L56.1055055,25.7263037 C59.9126749,25.9166622 62.3329468,24.203436 63.8558146,19.8795794 L68.506,6.69045699 L64.1549493,6.69045699 Z" id="Nippy"></path>
                        <rect id="Rectangle-2" x="92" y="12" width="60" height="2"></rect>
                    </g>
                </g>
            </g>
        </g>
    </g>
</svg>