<?xml version="1.0" encoding="UTF-8" standalone="no"?>
<svg width="85px" height="15px" viewBox="0 0 85 15" version="1.1" xmlns="http://www.w3.org/2000/svg" xmlns:xlink="http://www.w3.org/1999/xlink">
    <!-- Generator: Sketch 39.1 (31720) - http://www.bohemiancoding.com/sketch -->
    <title>Mashable</title>
    <desc>Created with Sketch.</desc>
    <defs></defs>
    <g id="Symbols" stroke="none" stroke-width="1" fill="none" fill-rule="evenodd" opacity="0.400000006">
        <g id="Partners" transform="translate(-775.000000, -128.000000)" fill="#5A7C8E">
            <g id="logos" transform="translate(191.000000, 123.000000)">
                <path d="M592.564,13.272 L589.624,5.46 L584.5,5.46 L584.5,19.572 L588.196,19.572 L588.196,10.164 L591.808,19.572 L593.404,19.572 L596.932,10.164 L596.932,19.572 L600.544,19.572 L600.544,5.46 L595.504,5.46 L592.564,13.272 Z M606.424,9.072 C604.51999,9.072 602.952006,9.60399468 601.72,10.668 L602.98,12.852 C603.820004,12.1239964 604.771995,11.76 605.836,11.76 C606.452003,11.76 606.941998,11.8999986 607.306,12.18 C607.670002,12.4600014 607.852,12.8239978 607.852,13.272 L607.852,14.28 C607.571999,13.9439983 607.152003,13.6640011 606.592,13.44 C606.031997,13.2159989 605.416003,13.104 604.744,13.104 C603.791995,13.104 603.008003,13.3559975 602.392,13.86 C601.607996,14.4200028 601.216,15.2459945 601.216,16.338 C601.216,17.4300055 601.607996,18.3119966 602.392,18.984 C603.064003,19.4880025 603.847996,19.74 604.744,19.74 C605.360003,19.74 605.961997,19.6280011 606.55,19.404 C607.138003,19.1799989 607.571999,18.872002 607.852,18.48 L607.852,19.572 L611.128,19.572 L611.128,13.104 C611.128,11.6479927 610.652005,10.5840034 609.7,9.912 C608.859996,9.3519972 607.740007,9.072 606.34,9.072 L606.424,9.072 Z M607.852,16.884 C607.515998,17.3880025 606.928004,17.64 606.088,17.64 C605.583997,17.64 605.178002,17.542001 604.87,17.346 C604.561998,17.149999 604.408,16.856002 604.408,16.464 C604.408,16.071998 604.561998,15.778001 604.87,15.582 C605.178002,15.385999 605.583997,15.288 606.088,15.288 C606.928004,15.288 607.515998,15.5119978 607.852,15.96 L607.852,16.884 Z M614.908,12.264 C614.908,12.0959992 615.019999,11.9420007 615.244,11.802 C615.468001,11.6619993 615.775998,11.592 616.168,11.592 C616.728003,11.592 617.287997,11.7039989 617.848,11.928 C618.408003,12.1520011 618.855998,12.4039986 619.192,12.684 L620.452,10.416 C619.219994,9.51999552 617.792008,9.072 616.168,9.072 C614.823993,9.072 613.760004,9.39399678 612.976,10.038 C612.191996,10.6820032 611.8,11.4799952 611.8,12.432 C611.8,13.1600036 611.981998,13.7619976 612.346,14.238 C612.710002,14.7140024 613.199997,15.0639989 613.816,15.288 C614.264002,15.4560008 614.851996,15.5959994 615.58,15.708 L617.092,15.96 C617.484002,16.1280008 617.68,16.2959992 617.68,16.464 C617.68,16.9680025 617.232004,17.22 616.336,17.22 C615.719997,17.22 615.062003,17.0800014 614.362,16.8 C613.661996,16.5199986 613.116002,16.2120017 612.724,15.876 L611.38,18.144 C611.940003,18.6480025 612.653996,19.0399986 613.522,19.32 C614.390004,19.6000014 615.271996,19.74 616.168,19.74 C617.624007,19.74 618.757996,19.4320031 619.57,18.816 C620.382004,18.1999969 620.788,17.388005 620.788,16.38 C620.788,15.6519964 620.606002,15.0500024 620.242,14.574 C619.877998,14.0979976 619.388003,13.7200014 618.772,13.44 C618.323998,13.2719992 617.736004,13.1320006 617.008,13.02 L615.496,12.768 C615.103998,12.6559994 614.908,12.4880011 614.908,12.264 L614.908,12.264 Z M628.012,9.072 C626.611993,9.072 625.436005,9.57599496 624.484,10.584 L624.484,5.46 L621.208,5.46 L621.208,19.572 L624.484,19.572 L624.484,12.936 C625.100003,12.2639966 625.743997,11.928 626.416,11.928 C627.536006,11.928 628.096,12.4879944 628.096,13.608 L628.096,19.572 L631.372,19.572 L631.372,12.264 C631.372,11.255995 631.092003,10.4720028 630.532,9.912 C629.971997,9.3519972 629.132006,9.072 628.012,9.072 L628.012,9.072 Z M637,9.072 C635.151991,9.072 633.612006,9.60399468 632.38,10.668 L633.64,12.852 C634.480004,12.1239964 635.403995,11.76 636.412,11.76 C637.084003,11.76 637.587998,11.8999986 637.924,12.18 C638.260002,12.4600014 638.428,12.8239978 638.428,13.272 L638.428,14.28 C638.203999,13.9439983 637.798003,13.6640011 637.21,13.44 C636.621997,13.2159989 635.992003,13.104 635.32,13.104 C634.423996,13.104 633.668003,13.3559975 633.052,13.86 C632.267996,14.4200028 631.876,15.2459945 631.876,16.338 C631.876,17.4300055 632.239996,18.3119966 632.968,18.984 C633.640003,19.4880025 634.423996,19.74 635.32,19.74 C635.992003,19.74 636.621997,19.6280011 637.21,19.404 C637.798003,19.1799989 638.203999,18.872002 638.428,18.48 L638.428,19.572 L641.704,19.572 L641.704,13.104 C641.704,10.4159866 640.136016,9.072 637,9.072 L637,9.072 Z M638.428,16.884 C638.315999,17.1080011 638.092002,17.2899993 637.756,17.43 C637.419998,17.5700007 637.042002,17.64 636.622,17.64 C636.201998,17.64 635.838002,17.542001 635.53,17.346 C635.221998,17.149999 635.068,16.856002 635.068,16.464 C635.068,16.071998 635.221998,15.778001 635.53,15.582 C635.838002,15.385999 636.201998,15.288 636.622,15.288 C637.042002,15.288 637.419998,15.3439994 637.756,15.456 C638.092002,15.5680006 638.315999,15.7359989 638.428,15.96 L638.428,16.884 Z M649.18,9.072 C647.891994,9.072 646.884004,9.54799524 646.156,10.5 L646.156,5.46 L642.88,5.46 L642.88,19.572 L646.156,19.572 L646.156,18.312 C646.884004,19.2640048 647.905993,19.74 649.222,19.74 C650.538007,19.74 651.615996,19.2640048 652.456,18.312 C653.296004,17.3599952 653.716,16.0580083 653.716,14.406 C653.716,12.7539917 653.296004,11.4520048 652.456,10.5 C651.615996,9.54799524 650.524007,9.072 649.18,9.072 L649.18,9.072 Z M648.172,16.884 C647.779998,16.884 647.402002,16.8000008 647.038,16.632 C646.673998,16.4639992 646.380001,16.2400014 646.156,15.96 L646.156,12.852 C646.380001,12.5719986 646.673998,12.3480008 647.038,12.18 C647.402002,12.0119992 647.779998,11.928 648.172,11.928 C648.788003,11.928 649.305998,12.1519978 649.726,12.6 C650.146002,13.0480022 650.356,13.6499962 650.356,14.406 C650.356,15.1620038 650.146002,15.7639978 649.726,16.212 C649.305998,16.6600022 648.760003,16.884 648.088,16.884 L648.172,16.884 Z M654.136,19.572 L657.412,19.572 L657.412,5.46 L654.136,5.46 L654.136,19.572 Z M668.5,14.7 C668.5,13.0199916 668.010005,11.6620052 667.03,10.626 C666.049995,9.58999482 664.790008,9.072 663.25,9.072 C661.709992,9.072 660.422005,9.57599496 659.386,10.584 C658.349995,11.592005 657.832,12.8519924 657.832,14.364 C657.832,15.9880081 658.363995,17.2899951 659.428,18.27 C660.492005,19.2500049 661.807992,19.74 663.376,19.74 C664.216004,19.74 665.027996,19.6280011 665.812,19.404 C666.596004,19.1799989 667.211998,18.8440022 667.66,18.396 L666.232,16.296 C665.951999,16.5200011 665.560003,16.729999 665.056,16.926 C664.551997,17.122001 664.132002,17.22 663.796,17.22 C663.067996,17.22 662.494002,17.0660015 662.074,16.758 C661.653998,16.4499985 661.360001,16.0720022 661.192,15.624 L668.5,15.624 L668.5,14.7 Z M661.192,13.272 C661.248,12.8239978 661.443998,12.4460015 661.78,12.138 C662.116002,11.8299985 662.619997,11.676 663.292,11.676 C663.964003,11.676 664.467998,11.8439983 664.804,12.18 C665.140002,12.5160017 665.336,12.879998 665.392,13.272 L661.192,13.272 Z" id="Mashable"></path>
            </g>
        </g>
    </g>
</svg>