<?xml version="1.0" encoding="UTF-8" standalone="no"?>
<svg width="85px" height="23px" viewBox="0 0 85 23" version="1.1" xmlns="http://www.w3.org/2000/svg" xmlns:xlink="http://www.w3.org/1999/xlink">
    <!-- Generator: Sketch 39.1 (31720) - http://www.bohemiancoding.com/sketch -->
    <title>Netflix</title>
    <desc>Created with Sketch.</desc>
    <defs></defs>
    <g id="Symbols" stroke="none" stroke-width="1" fill="none" fill-rule="evenodd" opacity="0.400000006">
        <g id="Partners" transform="translate(-385.000000, -124.000000)" fill="#5A7C8E">
            <g id="logos" transform="translate(191.000000, 123.000000)">
                <path d="M278.5,1.176 L274.888,1.176 L272.536,6.972 L270.436,1.176 L266.908,1.176 L270.604,11.676 L266.236,22.512 L269.764,22.932 L272.284,16.548 L274.72,23.52 L278.5,24.024 L274.216,11.76 L278.5,1.176 Z M259.852,22.008 C260.188002,22.0640003 261.419989,22.1759992 263.548,22.344 L263.548,1.176 L259.852,1.176 L259.852,22.008 Z M235.828,21.168 L236.164,21.168 L239.44,21.168 L239.44,13.356 L243.724,13.356 L243.724,10.164 L239.44,10.164 L239.44,4.536 L244.396,4.536 L244.396,1.176 L235.828,1.176 L235.828,21.168 Z M222.136,4.536 L225.412,4.536 L225.412,21.336 L229.024,21.252 L229.024,4.536 L232.384,4.536 L232.384,1.176 L222.136,1.176 L222.136,4.536 Z M202.732,14.196 L198.112,1.176 L194.5,1.176 L194.5,24.024 C195.732006,23.8559992 196.879995,23.7160006 197.944,23.604 L197.944,11.004 L202.144,23.016 L206.092,22.68 L206.092,1.176 L202.732,1.176 L202.732,14.196 Z M210.04,18.984 L210.04,22.26 C212.672013,22.0359989 215.527985,21.8400008 218.608,21.672 L218.608,18.396 C216.983992,18.4520003 215.332008,18.5639992 213.652,18.732 L213.652,13.356 L217.936,13.356 L217.936,10.164 L213.652,10.164 L213.652,4.536 L218.608,4.536 L218.608,1.176 L210.04,1.176 L210.04,18.984 Z M251.452,1.176 L247.924,1.176 L247.924,21.336 C250.668014,21.4480006 253.523985,21.5879992 256.492,21.756 L256.492,18.48 C254.979992,18.3679994 253.300009,18.2840003 251.452,18.228 L251.452,1.176 Z" id="Netflix"></path>
            </g>
        </g>
    </g>
</svg>