<?xml version="1.0" encoding="UTF-8" standalone="no"?>
<svg width="22px" height="47px" viewBox="0 0 22 47" version="1.1" xmlns="http://www.w3.org/2000/svg" xmlns:xlink="http://www.w3.org/1999/xlink">
    <!-- Generator: Sketch 39.1 (31720) - http://www.bohemiancoding.com/sketch -->
    <title>scroll</title>
    <desc>Created with Sketch.</desc>
    <defs></defs>
    <g id="Symbols" stroke="none" stroke-width="1" fill="none" fill-rule="evenodd">
        <g id="Header" transform="translate(-709.000000, -665.000000)" fill="#1D1D1D">
            <g id="scroll">
                <path d="M709.466,676.434 C709.466,674.532657 709.941329,672.777008 710.892,671.167 C711.842671,669.556992 713.122992,668.276671 714.733,667.326 C716.343008,666.375329 718.098657,665.9 720,665.9 C721.901343,665.9 723.656992,666.375329 725.267,667.326 C726.877008,668.276671 728.157329,669.556992 729.108,671.167 C730.058671,672.777008 730.534,674.532657 730.534,676.434 L730.534,693.96 C730.534,695.585341 730.189003,697.110993 729.499,698.537 C728.808997,699.963007 727.850673,701.174328 726.624,702.171 C725.397327,703.167672 724.017341,703.849998 722.484,704.218 L722.484,702.746 C724.41601,702.193997 726.01066,701.113008 727.268,699.503 C728.52534,697.892992 729.154,696.045344 729.154,693.96 L729.154,676.434 C729.154,674.777992 728.740004,673.25234 727.912,671.857 C727.083996,670.46166 725.97234,669.350004 724.577,668.522 C723.18166,667.693996 721.656008,667.28 720,667.28 C718.343992,667.28 716.81834,667.693996 715.423,668.522 C714.02766,669.350004 712.923671,670.46166 712.111,671.857 C711.298329,673.25234 710.892,674.777992 710.892,676.434 L710.892,694.006 C710.892,696.060677 711.512994,697.892992 712.755,699.503 C713.997006,701.113008 715.58399,702.193997 717.516,702.746 L717.516,704.218 C715.982659,703.849998 714.602673,703.167672 713.376,702.171 C712.149327,701.174328 711.191003,699.970674 710.501,698.56 C709.810997,697.149326 709.466,695.616008 709.466,693.96 L709.466,676.434 L709.466,676.434 Z M718.942,707.3 L718.942,695.57 C718.942,695.355332 719.010999,695.179001 719.149,695.041 C719.287001,694.902999 719.463332,694.834 719.678,694.834 L720.322,694.834 C720.536668,694.834 720.712999,694.902999 720.851,695.041 C720.989001,695.179001 721.058,695.355332 721.058,695.57 L721.058,707.3 L724.186,707.3 C724.400668,707.3 724.523333,707.346 724.554,707.438 C724.584667,707.53 724.538667,707.652666 724.416,707.806 L720.506,711.67 C720.383333,711.823334 720.214668,711.9 720,711.9 C719.785332,711.9 719.616667,711.823334 719.494,711.67 L715.584,707.806 C715.461333,707.652666 715.415333,707.53 715.446,707.438 C715.476667,707.346 715.599332,707.3 715.814,707.3 L718.942,707.3 Z M720.322,676.342 L719.678,676.342 C719.463332,676.342 719.287001,676.273001 719.149,676.135 C719.010999,675.996999 718.942,675.820668 718.942,675.606 L718.942,671.282 C718.942,671.097999 719.010999,670.929334 719.149,670.776 C719.287001,670.622666 719.463332,670.546 719.678,670.546 L720.322,670.546 C720.536668,670.546 720.712999,670.622666 720.851,670.776 C720.989001,670.929334 721.058,671.097999 721.058,671.282 L721.058,675.606 C721.058,675.820668 720.989001,675.996999 720.851,676.135 C720.712999,676.273001 720.536668,676.342 720.322,676.342 L720.322,676.342 Z"></path>
            </g>
        </g>
    </g>
</svg>