<?xml version="1.0" encoding="UTF-8"?>
<svg width="171px" height="17px" viewBox="0 0 171 17" version="1.1" xmlns="http://www.w3.org/2000/svg" xmlns:xlink="http://www.w3.org/1999/xlink">
    <!-- Generator: Sketch 39.1 (31720) - http://www.bohemiancoding.com/sketch -->
    <title>soc</title>
    <desc>Created with Sketch.</desc>
    <defs></defs>
    <g id="Symbols" stroke="none" stroke-width="1" fill="none" fill-rule="evenodd">
        <g id="Footer" transform="translate(-1133.000000, -94.000000)" fill="#FFFFFF">
            <g id="soc" transform="translate(1133.000000, 94.000000)">
                <path d="M7.654,5.928 L5.17,5.928 L5.17,4.29 C5.17,4.01399862 5.24799922,3.81000066 5.404,3.678 C5.5240006,3.58199952 5.6739991,3.534 5.854,3.534 L7.618,3.534 L7.618,0.834 L5.188,0.816 C4.35999586,0.816 3.6760027,1.00799808 3.136,1.392 C2.69199778,1.70400156 2.36200108,2.14199718 2.146,2.706 C1.97799916,3.13800216 1.894,3.61199742 1.894,4.128 L1.894,5.928 L0.346,5.928 L0.346,8.7 L1.894,8.7 L1.894,16.566 L5.17,16.566 L5.17,8.7 L7.366,8.7 L7.654,5.928 Z" id="facebook"></path>
                <path d="M50.3582314,4.326 C50.6942331,4.12199898 50.9852302,3.86700153 51.2312314,3.561 C51.4772326,3.25499847 51.6602308,2.91000192 51.7802314,2.526 C51.1442282,2.91000192 50.4602351,3.17399928 49.7282314,3.318 C49.4282299,2.99399838 49.0742334,2.7420009 48.6662314,2.562 C48.2582294,2.3819991 47.8262337,2.292 47.3702314,2.292 C46.7942285,2.292 46.2572339,2.43899853 45.7592314,2.733 C45.2612289,3.02700147 44.8682328,3.41999754 44.5802314,3.912 C44.29223,4.40400246 44.1482314,4.94399706 44.1482314,5.532 C44.1482314,5.78400126 44.1722312,6.0299988 44.2202314,6.27 C42.9002248,6.19799964 41.6582372,5.862003 40.4942314,5.262 C39.3542257,4.67399706 38.3762355,3.88200498 37.5602314,2.886 C37.27223,3.39000252 37.1282314,3.92999712 37.1282314,4.506 C37.1282314,5.05800276 37.2572301,5.57099763 37.5152314,6.045 C37.7732327,6.51900237 38.1242292,6.9059985 38.5682314,7.206 C38.0402288,7.19399994 37.5482337,7.05600132 37.0922314,6.792 L37.0922314,6.846 C37.1042315,7.35000252 37.2212303,7.82699775 37.4432314,8.277 C37.6652325,8.72700225 37.9742294,9.10499847 38.3702314,9.411 C38.7662334,9.71700153 39.204229,9.91799952 39.6842314,10.014 C39.40823,10.0860004 39.1262328,10.122 38.8382314,10.122 C38.6342304,10.122 38.4362324,10.1040002 38.2442314,10.068 C38.4482324,10.7160032 38.8262286,11.2469979 39.3782314,11.661 C39.9302342,12.0750021 40.5542279,12.2939999 41.2502314,12.318 C40.6862286,12.7500022 40.0622348,13.0859988 39.3782314,13.326 C38.694228,13.5660012 37.9802351,13.686 37.2362314,13.686 C36.9722301,13.686 36.7142327,13.6740001 36.4622314,13.65 C37.1942351,14.1180023 37.9742273,14.4719988 38.8022314,14.712 C39.6542357,14.9640013 40.5302269,15.09 41.4302314,15.09 C42.8462385,15.09 44.1602253,14.8140028 45.3722314,14.262 C46.4762369,13.7459974 47.4362273,13.0260046 48.2522314,12.102 C49.0082352,11.2379957 49.5962293,10.2540055 50.0162314,9.15 C50.4122334,8.0699946 50.6102314,6.9900054 50.6102314,5.91 L50.6102314,5.496 C51.2462346,5.02799766 51.7862292,4.4640033 52.2302314,3.804 C51.6422285,4.06800132 51.0182347,4.24199958 50.3582314,4.326 Z" id="twitter"></path>
                <path d="M84.6744628,0.816 C83.2464557,0.816 81.9204689,1.1759964 80.6964628,1.896 C79.5084569,2.59200348 78.5664663,3.53399406 77.8704628,4.722 C77.1624593,5.94600612 76.8084628,7.27199286 76.8084628,8.7 C76.8084628,10.1280071 77.1624593,11.4539939 77.8704628,12.678 C78.5664663,13.8660059 79.5084569,14.8079965 80.6964628,15.504 C81.9204689,16.2240036 83.2464557,16.581 84.6744628,16.575 C86.1024699,16.569 87.4284567,16.2120035 88.6524628,15.504 C89.8404687,14.8079965 90.7824593,13.8660059 91.4784628,12.678 C92.1864663,11.4539939 92.5434628,10.1280071 92.5494628,8.7 C92.5554628,7.27199286 92.1984664,5.94600612 91.4784628,4.722 C90.7824593,3.53399406 89.8404687,2.59200348 88.6524628,1.896 C87.4284567,1.18799646 86.1024699,0.834 84.6744628,0.834 L84.6744628,0.816 Z M89.4984628,4.902 C89.8944648,5.40600252 90.2034617,5.95499703 90.4254628,6.549 C90.6474639,7.14300297 90.7764626,7.76399676 90.8124628,8.412 C89.9364584,8.21999904 89.0964668,8.124 88.2924628,8.124 C87.6924598,8.124 87.0984657,8.17799946 86.5104628,8.286 C86.3904622,7.99799856 86.2524636,7.68000174 86.0964628,7.332 C87.4764697,6.71999694 88.6104584,5.91000504 89.4984628,4.902 L89.4984628,4.902 Z M84.6744628,2.562 C85.3824663,2.562 86.0634595,2.67899883 86.7174628,2.913 C87.3714661,3.14700117 87.9684601,3.47999784 88.5084628,3.912 C87.7644591,4.80000444 86.7564692,5.51999724 85.4844628,6.072 C84.8364596,4.79999364 84.1284666,3.67800486 83.3604628,2.706 C83.804465,2.60999952 84.2424606,2.562 84.6744628,2.562 L84.6744628,2.562 Z M81.9564628,3.192 C82.7244666,4.0920045 83.4564593,5.20799334 84.1524628,6.54 C83.3124586,6.79200126 82.4124676,6.97199946 81.4524628,7.08 C80.7204591,7.17600048 80.0004663,7.224 79.2924628,7.224 L78.7164628,7.206 C78.9324639,6.32999562 79.32546,5.54100351 79.8954628,4.839 C80.4654657,4.13699649 81.1524588,3.58800198 81.9564628,3.192 L81.9564628,3.192 Z M78.5364628,8.7 L78.5364628,8.61 C78.7404638,8.62200006 78.9624616,8.628 79.2024628,8.628 C81.2784732,8.61599994 83.1384546,8.34600264 84.7824628,7.818 C84.9144635,8.10600144 85.0344623,8.37599874 85.1424628,8.628 C83.8584564,9.06000216 82.7064679,9.74399532 81.6864628,10.68 C81.0264595,11.280003 80.4624651,11.9399964 79.9944628,12.66 C79.5264605,12.1079972 79.1664641,11.4960034 78.9144628,10.824 C78.6624615,10.1519966 78.5364628,9.44400372 78.5364628,8.7 L78.5364628,8.7 Z M84.6744628,14.838 C84.0024594,14.838 83.3574659,14.733001 82.7394628,14.523 C82.1214597,14.3129989 81.5484654,14.0160019 81.0204628,13.632 C81.4044647,13.0079969 81.87846,12.4260027 82.4424628,11.886 C83.3904675,10.9739954 84.4584569,10.3260019 85.6464628,9.942 C86.1504653,11.3700071 86.5524613,12.8699921 86.8524628,14.442 C86.1444593,14.7060013 85.4184665,14.838 84.6744628,14.838 L84.6744628,14.838 Z M88.1484628,13.758 C87.8604614,12.3299929 87.4824651,10.9500067 87.0144628,9.618 C87.4344649,9.5579997 87.8544607,9.528 88.2744628,9.528 L88.2924628,9.528 C89.0484666,9.528 89.8524585,9.62399904 90.7044628,9.816 C90.5604621,10.6320041 90.2634651,11.3789966 89.8134628,12.057 C89.3634606,12.7350034 88.8084661,13.3019977 88.1484628,13.758 L88.1484628,13.758 Z" id="dribbble"></path>
                <path d="M127.135769,6.45 L131.689769,6.45 L131.689769,6.666 L131.689769,13.524 C131.689769,14.0760028 131.55177,14.5859977 131.275769,15.054 C130.999767,15.5220023 130.627771,15.8909986 130.159769,16.161 C129.691766,16.4310013 129.181771,16.566 128.629769,16.566 L119.089769,16.566 C118.537766,16.5780001 118.027771,16.4460014 117.559769,16.17 C117.091766,15.8939986 116.71677,15.5220023 116.434769,15.054 C116.152767,14.5859977 116.011769,14.0760028 116.011769,13.524 L116.011769,6.468 L120.565769,6.468 C119.797765,7.63200582 119.629766,8.8439937 120.061769,10.104 C120.36177,10.9560043 120.895765,11.6279975 121.663769,12.12 C122.167771,12.4560017 122.710766,12.6629996 123.292769,12.741 C123.874772,12.8190004 124.447766,12.7740008 125.011769,12.606 C125.575771,12.4379992 126.079766,12.156002 126.523769,11.76 C126.967771,11.363998 127.303767,10.8840028 127.531769,10.32 C127.78377,9.70799694 127.885769,9.08400318 127.837769,8.448 C127.777768,7.75199652 127.543771,7.08600318 127.135769,6.45 L127.135769,6.45 Z M117.955769,4.704 L117.955769,1.302 C117.955769,1.16999934 117.967768,1.08900015 117.991769,1.059 C118.015769,1.02899985 118.099768,0.99000024 118.243769,0.942 L118.405769,0.906 L118.405769,4.704 L119.053769,4.704 L119.053769,0.834 L119.467769,0.834 L119.467769,4.704 L120.115769,4.704 L120.115769,0.816 L128.629769,0.816 C129.169771,0.816 129.670766,0.95099865 130.132769,1.221 C130.594771,1.49100135 130.966767,1.85399772 131.248769,2.31 C131.53077,2.76600228 131.677769,3.25799736 131.689769,3.786 C131.701769,4.0860015 131.707769,4.4459979 131.707769,4.866 C131.695769,5.75400444 131.689769,6.12000078 131.689769,5.964 L126.865769,5.964 C126.757768,5.964 126.673769,5.92800036 126.613769,5.856 C126.085766,5.3759976 125.491772,5.05200084 124.831769,4.884 C124.171765,4.71599916 123.511772,4.71899913 122.851769,4.893 C122.191765,5.06700087 121.597771,5.3939976 121.069769,5.874 C121.009768,5.9340003 120.949769,5.964 120.889769,5.964 L116.119769,5.964 L116.029769,5.946 L116.029769,5.262 C116.017769,5.40600072 116.011769,5.13000348 116.011769,4.434 C116.011769,4.10999838 116.023768,3.83400114 116.047769,3.606 C116.107769,2.72999562 116.509765,2.00400288 117.253769,1.428 L117.325769,1.41 L117.325769,4.704 L117.955769,4.704 Z M130.267769,3.462 C130.267769,3.462 130.267769,3.32400138 130.267769,3.048 L130.267769,2.634 C130.267769,2.47799922 130.222769,2.35500045 130.132769,2.265 C130.042768,2.17499955 129.925769,2.13 129.781769,2.13 C129.229766,2.11799994 128.671771,2.11799994 128.107769,2.13 C127.951768,2.13 127.831769,2.17799952 127.747769,2.274 C127.663768,2.37000048 127.621769,2.49599922 127.621769,2.652 L127.621769,4.308 C127.621769,4.46400078 127.666768,4.58699955 127.756769,4.677 C127.846769,4.76700045 127.963768,4.812 128.107769,4.812 L129.763769,4.812 C129.919769,4.812 130.042768,4.76700045 130.132769,4.677 C130.222769,4.58699955 130.267769,4.46400078 130.267769,4.308 L130.267769,3.462 Z M123.859769,11.85 C123.295766,11.85 122.773771,11.7150013 122.293769,11.445 C121.813766,11.1749986 121.43577,10.8030024 121.159769,10.329 C120.883767,9.85499763 120.745769,9.33900279 120.745769,8.781 C120.745769,8.22299721 120.883767,7.70700237 121.159769,7.233 C121.43577,6.75899763 121.813766,6.38100141 122.293769,6.099 C122.773771,5.81699859 123.292766,5.676 123.850769,5.676 C124.408771,5.676 124.924766,5.81699859 125.398769,6.099 C125.872771,6.38100141 126.247767,6.75899763 126.523769,7.233 C126.79977,7.70700237 126.937769,8.22299721 126.937769,8.781 C126.937769,9.33900279 126.79977,9.85499763 126.523769,10.329 C126.247767,10.8030024 125.872771,11.1749986 125.398769,11.445 C124.924766,11.7150013 124.411771,11.85 123.859769,11.85 L123.859769,11.85 Z M126.127769,8.772 C126.127769,8.36399796 126.02577,7.98300177 125.821769,7.629 C125.617768,7.27499823 125.34177,6.99600102 124.993769,6.792 C124.645767,6.58799898 124.264771,6.486 123.850769,6.486 C123.436767,6.486 123.05577,6.58799898 122.707769,6.792 C122.359767,6.99600102 122.08377,7.27199826 121.879769,7.62 C121.675768,7.96800174 121.573769,8.34899793 121.573769,8.763 C121.573769,9.17700207 121.675768,9.55799826 121.879769,9.906 C122.08377,10.2540017 122.359767,10.5329989 122.707769,10.743 C123.05577,10.953001 123.436767,11.058 123.850769,11.058 C124.264771,11.058 124.645767,10.956001 124.993769,10.752 C125.34177,10.547999 125.617768,10.2720017 125.821769,9.924 C126.02577,9.57599826 126.127769,9.1920021 126.127769,8.772 L126.127769,8.772 Z" id="instagram"></path>
                <path d="M169.678,0.816 L156.34,0.816 C156.015998,0.816 155.740001,0.92699889 155.512,1.149 C155.283999,1.37100111 155.17,1.63799844 155.17,1.95 L155.17,15.45 C155.17,15.7620016 155.283999,16.0259989 155.512,16.242 C155.740001,16.4580011 156.009998,16.566 156.322,16.566 L169.678,16.566 C169.990002,16.566 170.259999,16.4580011 170.488,16.242 C170.716001,16.0259989 170.83,15.7620016 170.83,15.45 L170.83,1.95 C170.83,1.63799844 170.716001,1.37100111 170.488,1.149 C170.259999,0.92699889 169.984002,0.816 169.66,0.816 L169.678,0.816 Z M159.922,14.01 L157.564,14.01 L157.564,6.9 L159.922,6.9 L159.922,14.01 Z M158.734,5.928 L158.716,5.928 C158.331998,5.928 158.020001,5.81100117 157.78,5.577 C157.539999,5.34299883 157.42,5.04900177 157.42,4.695 C157.42,4.34099823 157.542999,4.04700117 157.789,3.813 C158.035001,3.57899883 158.355998,3.462 158.752,3.462 C159.148002,3.462 159.465999,3.57899883 159.706,3.813 C159.946001,4.04700117 160.066,4.34099823 160.066,4.695 C160.066,5.04900177 159.946001,5.34299883 159.706,5.577 C159.465999,5.81100117 159.142002,5.928 158.734,5.928 L158.734,5.928 Z M168.436,14.01 L166.078,14.01 L166.078,10.194 C166.078,9.70199754 165.988001,9.31800138 165.808,9.042 C165.603999,8.7419985 165.298002,8.592 164.89,8.592 C164.577998,8.592 164.314001,8.6819991 164.098,8.862 C163.905999,9.01800078 163.762,9.2159988 163.666,9.456 C163.618,9.58800066 163.594,9.77999874 163.594,10.032 L163.594,14.01 L161.236,14.01 L161.236,10.698 C161.248,8.44198872 161.248,7.17600138 161.236,6.9 L163.594,6.9 L163.594,7.908 C163.810001,7.57199832 164.043999,7.3140009 164.296,7.134 C164.692002,6.86999868 165.165997,6.738 165.718,6.738 C166.534004,6.738 167.181998,6.99599742 167.662,7.512 C168.178003,8.07600282 168.436,8.87999478 168.436,9.924 L168.436,14.01 Z" id="linkedin"></path>
            </g>
        </g>
    </g>
</svg>