<?xml version="1.0" encoding="UTF-8"?>
<svg width="17px" height="14px" viewBox="0 0 17 14" version="1.1" xmlns="http://www.w3.org/2000/svg" xmlns:xlink="http://www.w3.org/1999/xlink">
    <!-- Generator: Sketch 39.1 (31720) - http://www.bohemiancoding.com/sketch -->
    <title>twitter</title>
    <desc>Created with Sketch.</desc>
    <defs></defs>
    <g id="Symbols" stroke="none" stroke-width="1" fill="none" fill-rule="evenodd">
        <g id="Footer" transform="translate(-1169.000000, -96.000000)" fill="#FFFFFF">
            <g id="soc" transform="translate(1133.000000, 94.000000)">
                <path d="M50.3582314,4.326 C50.6942331,4.12199898 50.9852302,3.86700153 51.2312314,3.561 C51.4772326,3.25499847 51.6602308,2.91000192 51.7802314,2.526 C51.1442282,2.91000192 50.4602351,3.17399928 49.7282314,3.318 C49.4282299,2.99399838 49.0742334,2.7420009 48.6662314,2.562 C48.2582294,2.3819991 47.8262337,2.292 47.3702314,2.292 C46.7942285,2.292 46.2572339,2.43899853 45.7592314,2.733 C45.2612289,3.02700147 44.8682328,3.41999754 44.5802314,3.912 C44.29223,4.40400246 44.1482314,4.94399706 44.1482314,5.532 C44.1482314,5.78400126 44.1722312,6.0299988 44.2202314,6.27 C42.9002248,6.19799964 41.6582372,5.862003 40.4942314,5.262 C39.3542257,4.67399706 38.3762355,3.88200498 37.5602314,2.886 C37.27223,3.39000252 37.1282314,3.92999712 37.1282314,4.506 C37.1282314,5.05800276 37.2572301,5.57099763 37.5152314,6.045 C37.7732327,6.51900237 38.1242292,6.9059985 38.5682314,7.206 C38.0402288,7.19399994 37.5482337,7.05600132 37.0922314,6.792 L37.0922314,6.846 C37.1042315,7.35000252 37.2212303,7.82699775 37.4432314,8.277 C37.6652325,8.72700225 37.9742294,9.10499847 38.3702314,9.411 C38.7662334,9.71700153 39.204229,9.91799952 39.6842314,10.014 C39.40823,10.0860004 39.1262328,10.122 38.8382314,10.122 C38.6342304,10.122 38.4362324,10.1040002 38.2442314,10.068 C38.4482324,10.7160032 38.8262286,11.2469979 39.3782314,11.661 C39.9302342,12.0750021 40.5542279,12.2939999 41.2502314,12.318 C40.6862286,12.7500022 40.0622348,13.0859988 39.3782314,13.326 C38.694228,13.5660012 37.9802351,13.686 37.2362314,13.686 C36.9722301,13.686 36.7142327,13.6740001 36.4622314,13.65 C37.1942351,14.1180023 37.9742273,14.4719988 38.8022314,14.712 C39.6542357,14.9640013 40.5302269,15.09 41.4302314,15.09 C42.8462385,15.09 44.1602253,14.8140028 45.3722314,14.262 C46.4762369,13.7459974 47.4362273,13.0260046 48.2522314,12.102 C49.0082352,11.2379957 49.5962293,10.2540055 50.0162314,9.15 C50.4122334,8.0699946 50.6102314,6.9900054 50.6102314,5.91 L50.6102314,5.496 C51.2462346,5.02799766 51.7862292,4.4640033 52.2302314,3.804 C51.6422285,4.06800132 51.0182347,4.24199958 50.3582314,4.326 Z" id="twitter"></path>
            </g>
        </g>
    </g>
</svg>